<svg xmlns="http://www.w3.org/2000/svg" width="510" height="510" viewBox="0 0 510 510"><path d="M459 0H51C23 0 0 23 0 51v408c0 28.1 23 51 51 51h408c28.1 0 51-22.9 51-51V51C510 23 487.1 0 459 0zM255 153c56.1 0 102 45.9 102 102 0 56.1-45.9 102-102 102 -56.1 0-102-45.9-102-102C153 198.9 198.9 153 255 153zM63.8 459C56.1 459 51 453.9 51 446.3V229.5h53.6C102 237.2 102 247.4 102 255c0 84.2 68.9 153 153 153 84.2 0 153-68.8 153-153 0-7.6 0-17.8-2.5-25.5H459v216.8c0 7.7-5.1 12.8-12.7 12.8H63.8zM459 114.8c0 7.7-5.1 12.8-12.7 12.8h-51c-7.6 0-12.7-5.1-12.7-12.7v-51c0-7.6 5.1-12.7 12.8-12.7h51C453.9 51 459 56.1 459 63.8V114.8z" /></svg>